<svg xmlns="http://www.w3.org/2000/svg" width="1200" height="700" viewBox="0 0 1200 700" fill="none">
  <rect width="1200" height="700" fill="#07121F"/>
  <rect x="35" y="35" width="1130" height="630" rx="20" fill="#0D1B2D" stroke="#2A455F" stroke-width="2"/>
  <rect x="80" y="95" width="500" height="255" rx="14" fill="#13243A"/>
  <rect x="620" y="95" width="500" height="255" rx="14" fill="#13243A"/>
  <rect x="80" y="385" width="1040" height="230" rx="14" fill="#13243A"/>
  <path d="M120 311L200 235L280 248L360 165L440 185L520 138" stroke="#22D3EE" stroke-width="7" stroke-linecap="round" stroke-linejoin="round"/>
  <circle cx="200" cy="235" r="8" fill="#22D3EE"/>
  <circle cx="360" cy="165" r="8" fill="#22D3EE"/>
  <circle cx="520" cy="138" r="8" fill="#22D3EE"/>
  <rect x="670" y="152" width="110" height="140" rx="8" fill="#234A68"/>
  <rect x="806" y="188" width="110" height="104" rx="8" fill="#1D3D58"/>
  <rect x="942" y="126" width="110" height="166" rx="8" fill="#2A5F84"/>
  <text x="85" y="72" fill="#A8C6E4" font-family="Arial, sans-serif" font-size="28">Smart Ops Dashboard</text>
  <text x="85" y="426" fill="#8AB6DA" font-family="Arial, sans-serif" font-size="26">Incident Queue | SLA Status | Uptime Monitor</text>
  <rect x="115" y="460" width="300" height="24" rx="8" fill="#214562"/>
  <rect x="115" y="504" width="420" height="24" rx="8" fill="#1B3850"/>
  <rect x="115" y="548" width="350" height="24" rx="8" fill="#214562"/>
  <rect x="576" y="460" width="505" height="112" rx="10" fill="#0F2A40" stroke="#2E526F"/>
</svg>
