<svg xmlns="http://www.w3.org/2000/svg" width="1400" height="1800" viewBox="0 0 1400 1800" fill="none">
  <rect width="1400" height="1800" fill="#F7FAFD"/>
  <rect x="70" y="70" width="1260" height="1660" rx="20" fill="#FFFFFF" stroke="#D6E2ED" stroke-width="3"/>
  <rect x="120" y="120" width="1160" height="220" rx="12" fill="#0D1A2B"/>
  <text x="170" y="212" fill="#E3F2FF" font-family="Arial, sans-serif" font-size="64" font-weight="700">EN CHENG</text>
  <text x="170" y="270" fill="#9EC2E2" font-family="Arial, sans-serif" font-size="34">IT / SOFTWARE DEVELOPER</text>
  <text x="170" y="318" fill="#9EC2E2" font-family="Arial, sans-serif" font-size="24">email@domain.com | +1 (123) 456-7890 | github.com/your-github</text>
  <text x="120" y="420" fill="#0E2238" font-family="Arial, sans-serif" font-size="36" font-weight="700">PROFILE</text>
  <rect x="120" y="445" width="1160" height="2" fill="#D1DEEA"/>
  <rect x="120" y="475" width="1100" height="22" rx="6" fill="#E7EEF5"/>
  <rect x="120" y="515" width="1040" height="22" rx="6" fill="#E7EEF5"/>
  <rect x="120" y="555" width="980" height="22" rx="6" fill="#E7EEF5"/>
  <text x="120" y="660" fill="#0E2238" font-family="Arial, sans-serif" font-size="36" font-weight="700">SKILLS</text>
  <rect x="120" y="685" width="1160" height="2" fill="#D1DEEA"/>
  <rect x="120" y="720" width="360" height="46" rx="8" fill="#DCEBFA"/>
  <rect x="500" y="720" width="360" height="46" rx="8" fill="#DCEBFA"/>
  <rect x="880" y="720" width="360" height="46" rx="8" fill="#DCEBFA"/>
  <rect x="120" y="786" width="360" height="46" rx="8" fill="#DCEBFA"/>
  <rect x="500" y="786" width="360" height="46" rx="8" fill="#DCEBFA"/>
  <rect x="880" y="786" width="360" height="46" rx="8" fill="#DCEBFA"/>
  <text x="120" y="910" fill="#0E2238" font-family="Arial, sans-serif" font-size="36" font-weight="700">EXPERIENCE</text>
  <rect x="120" y="935" width="1160" height="2" fill="#D1DEEA"/>
  <rect x="120" y="970" width="420" height="22" rx="6" fill="#E7EEF5"/>
  <rect x="120" y="1006" width="1080" height="18" rx="6" fill="#F0F5FA"/>
  <rect x="120" y="1038" width="980" height="18" rx="6" fill="#F0F5FA"/>
  <rect x="120" y="1070" width="1020" height="18" rx="6" fill="#F0F5FA"/>
  <rect x="120" y="1130" width="420" height="22" rx="6" fill="#E7EEF5"/>
  <rect x="120" y="1166" width="1060" height="18" rx="6" fill="#F0F5FA"/>
  <rect x="120" y="1198" width="990" height="18" rx="6" fill="#F0F5FA"/>
  <rect x="120" y="1230" width="930" height="18" rx="6" fill="#F0F5FA"/>
  <text x="120" y="1360" fill="#0E2238" font-family="Arial, sans-serif" font-size="36" font-weight="700">EDUCATION</text>
  <rect x="120" y="1385" width="1160" height="2" fill="#D1DEEA"/>
  <rect x="120" y="1420" width="480" height="22" rx="6" fill="#E7EEF5"/>
  <rect x="120" y="1456" width="1040" height="18" rx="6" fill="#F0F5FA"/>
  <rect x="120" y="1488" width="980" height="18" rx="6" fill="#F0F5FA"/>
  <text x="120" y="1655" fill="#7088A0" font-family="Arial, sans-serif" font-size="24">Replace this placeholder with your real resume image before submitting applications.</text>
</svg>
